<?xml version="1.0" encoding="UTF-8" standalone="no"?>
<!-- Created with Inkscape (http://www.inkscape.org/) -->

<svg
  xmlns:dc="http://purl.org/dc/elements/1.1/"
  xmlns:cc="http://creativecommons.org/ns#"
  xmlns:rdf="http://www.w3.org/1999/02/22-rdf-syntax-ns#"
  xmlns="http://www.w3.org/2000/svg"
  xmlns:sodipodi="http://sodipodi.sourceforge.net/DTD/sodipodi-0.dtd"
  xmlns:inkscape="http://www.inkscape.org/namespaces/inkscape"
  width="32mm"
  height="32mm"
  viewBox="0 0 32 32"
  version="1.1"
  id="svg8"
  inkscape:version="0.92.1 r15371"
  sodipodi:docname="logo-white.svg">
  <title
    id="title4604">Icon for oilspillsnear.me
  </title>
  <defs
    id="defs2"/>
  <sodipodi:namedview
    id="base"
    pagecolor="#ffffff"
    bordercolor="#666666"
    borderopacity="1.0"
    inkscape:pageopacity="0.0"
    inkscape:pageshadow="2"
    inkscape:zoom="3.959798"
    inkscape:cx="19.566738"
    inkscape:cy="71.298736"
    inkscape:document-units="mm"
    inkscape:current-layer="g4499"
    showgrid="false"
    inkscape:window-width="1920"
    inkscape:window-height="1027"
    inkscape:window-x="-8"
    inkscape:window-y="-8"
    inkscape:window-maximized="1"
    fit-margin-top="0"
    fit-margin-left="0"
    fit-margin-right="0"
    fit-margin-bottom="0"/>
  <metadata
    id="metadata5">
    <rdf:RDF>
      <cc:Work
        rdf:about="">
        <dc:format>image/svg+xml</dc:format>
        <dc:type
          rdf:resource="http://purl.org/dc/dcmitype/StillImage"/>
        <dc:title>Icon for oilspillsnear.me</dc:title>
      </cc:Work>
    </rdf:RDF>
  </metadata>
  <g
    inkscape:label="Layer 1"
    inkscape:groupmode="layer"
    id="layer1"
    transform="translate(-18.727539,-20.009748)">
    <g
      id="g4499"
      transform="matrix(0.77425939,0,0,1.0022008,-4.5080166,-3.5988885)">
      <g
        id="g4595"
        transform="translate(1.1218798,-2.4668141)"
        style="fill:#ffffff">
        <path
          sodipodi:nodetypes="cc"
          style="fill:#ffffff;stroke:#ffffff;stroke-width:2.30789876;stroke-linecap:butt;stroke-linejoin:miter;stroke-miterlimit:4;stroke-dasharray:none;stroke-opacity:1"
          d="M 42.219018,41.299106 40.852844,53.965044"
          id="path4489"
          inkscape:connector-curvature="0"/>
        <path
          style="fill:#ffffff;stroke:#ffffff;stroke-width:2.30789876;stroke-linecap:butt;stroke-linejoin:miter;stroke-miterlimit:4;stroke-dasharray:none;stroke-opacity:1"
          d="m 50.270833,38.08631 0.944941,12.851188"
          id="path4491"
          inkscape:connector-curvature="0"/>
        <path
          style="color:#000000;font-style:normal;font-variant:normal;font-weight:normal;font-stretch:normal;font-size:medium;line-height:normal;font-family:sans-serif;font-variant-ligatures:normal;font-variant-position:normal;font-variant-caps:normal;font-variant-numeric:normal;font-variant-alternates:normal;font-feature-settings:normal;text-indent:0;text-align:start;text-decoration:none;text-decoration-line:none;text-decoration-style:solid;text-decoration-color:#000000;letter-spacing:normal;word-spacing:normal;text-transform:none;writing-mode:lr-tb;direction:ltr;text-orientation:mixed;dominant-baseline:auto;baseline-shift:baseline;text-anchor:start;white-space:normal;shape-padding:0;clip-rule:nonzero;display:inline;overflow:visible;visibility:visible;opacity:1;isolation:auto;mix-blend-mode:normal;color-interpolation:sRGB;color-interpolation-filters:linearRGB;solid-color:#000000;solid-opacity:1;vector-effect:none;fill:#ffffff;fill-opacity:1;fill-rule:nonzero;stroke:none;stroke-width:7.68377924;stroke-linecap:butt;stroke-linejoin:miter;stroke-miterlimit:4;stroke-dasharray:none;stroke-dashoffset:0;stroke-opacity:1;color-rendering:auto;image-rendering:auto;shape-rendering:auto;text-rendering:auto;enable-background:accumulate"
          d="m 172.48828,124.55859 -19.86719,9.74219 -8.12695,-2.94726 c -0.12209,2.3094 0.0534,4.387 0.61719,6.07812 0.55815,1.67421 1.44508,3.09473 2.9082,4.28125 l 1.79883,0.65234 0.0762,0.5625 c 1.76503,0.90692 4.10294,1.54276 7.08594,1.75977 l -0.39844,-2.97656 11.53906,-5.66406 1.48438,6.3457 c 2.04624,-1.30893 3.18436,-2.95379 3.85351,-4.96094 0.56473,-1.69391 0.74052,-3.77583 0.61719,-6.08984 z m -42.60937,1.49414 -23.38282,12.08008 -23.449215,-11.85742 -12.265625,55.5293 3.074219,1.32422 28.593751,12.25976 30.28125,-11.45312 27.24609,12.63672 25.99414,-14.39844 -9.60742,-41.05664 c -1.16778,2.4867 -2.97238,4.59224 -5.39062,6.04297 -0.0716,0.043 -0.14999,0.0791 -0.22266,0.12109 l 7.00195,29.9375 -15.28711,8.4668 -4.80273,-35.89453 c -2.67958,-0.11665 -4.99916,-0.53419 -7.01563,-1.23438 l 4.90625,36.67578 -22.61132,-10.48633 -30.36524,11.48243 -23.519529,-10.08399 8.447265,-38.23242 19.015624,9.61719 23.74219,-12.25782 11.23242,4.07422 c -0.95962,-2.92883 -1.17446,-6.11352 -0.89648,-9.40625 z"
          transform="matrix(0.34172441,0,0,0.26400232,5.8223596,3.5909855)"
          id="path4493"
          inkscape:connector-curvature="0"/>
      </g>
      <path
        style="fill:#ffffff;fill-opacity:1;stroke:none;stroke-width:0.70253807px;stroke-linecap:butt;stroke-linejoin:miter;stroke-opacity:1"
        d="m 61.376054,25.68105 c 0,0 -11.848933,13.728939 0,13.728939 11.848936,0 0,-13.728939 0,-13.728939 z"
        id="path4503"
        inkscape:connector-curvature="0"/>
    </g>
  </g>
</svg>
