<?xml version="1.0" standalone="no"?>
<!DOCTYPE svg PUBLIC "-//W3C//DTD SVG 20010904//EN"
  "http://www.w3.org/TR/2001/REC-SVG-20010904/DTD/svg10.dtd">
<svg version="1.0" xmlns="http://www.w3.org/2000/svg"
     width="512.000000pt" height="512.000000pt" viewBox="0 0 512.000000 512.000000"
     preserveAspectRatio="xMidYMid meet">
  <metadata>
    Created by potrace 1.11, written by Peter Selinger 2001-2013
  </metadata>
  <g transform="translate(0.000000,512.000000) scale(0.100000,-0.100000)"
     fill="#000000" stroke="none">
    <path d="M395 5101 c-166 -47 -309 -187 -368 -360 l-22 -66 -3 -2080 c-3
-2311 -7 -2152 64 -2294 65 -131 182 -231 318 -274 l71 -22 2105 0 2105 0 71
22 c136 43 253 143 318 274 71 142 67 -17 64 2294 l-3 2080 -22 66 c-45 131
-149 257 -262 317 -123 66 38 62 -2276 61 -1957 0 -2104 -2 -2160 -18z m3459
-736 c239 -405 389 -757 452 -1065 24 -116 24 -304 0 -385 -50 -167 -153 -263
-336 -312 -91 -25 -358 -25 -448 0 -181 49 -285 143 -335 302 -29 96 -29 268
2 415 67 315 248 728 499 1134 65 104 46 114 166 -89z m-1027 -1139 c98 -35
185 -67 194 -71 14 -5 17 -25 18 -118 0 -62 7 -139 15 -172 8 -33 13 -62 11
-64 -2 -2 -66 19 -142 47 -76 28 -139 49 -140 49 -6 -7 85 -1489 93 -1496 5
-5 92 -47 194 -94 102 -47 263 -121 358 -165 126 -59 172 -76 172 -65 0 8 -41
317 -90 686 -50 369 -88 672 -86 674 2 3 23 -1 45 -7 23 -6 81 -17 129 -23
l87 -13 89 -672 c50 -370 94 -672 99 -672 9 0 547 297 560 310 5 4 -50 261
-123 571 -123 528 -130 563 -113 572 39 22 137 124 164 172 18 31 30 44 33 35
8 -23 356 -1517 356 -1528 0 -5 -220 -132 -489 -281 l-489 -270 -515 238 -515
239 -553 -209 c-304 -115 -562 -212 -574 -215 -16 -4 -204 72 -611 246 -324
139 -592 255 -596 259 -6 6 448 2081 458 2091 3 3 203 -95 445 -218 l439 -223
432 225 c238 123 441 225 450 225 10 1 98 -28 195 -63z"/>
    <path d="M2195 2714 c-176 -92 -321 -167 -323 -169 -5 -4 -124 -1456 -119
-1461 3 -4 846 311 854 320 2 2 -14 322 -37 710 -22 389 -40 721 -40 737 0 16
-3 29 -7 29 -5 0 -152 -75 -328 -166z"/>
    <path d="M1014 2763 c-268 -1201 -301 -1358 -285 -1366 53 -25 756 -324 759
-322 3 3 122 1421 122 1455 0 23 -27 38 -283 168 -155 79 -285 143 -289 143
-4 -1 -14 -36 -24 -78z"/>
  </g>
</svg>
